<svg xmlns="http://www.w3.org/2000/svg" xmlns:xlink="http://www.w3.org/1999/xlink" width="500" zoomAndPan="magnify" viewBox="0 0 375 374.999991" height="500" preserveAspectRatio="xMidYMid meet" version="1.0"><defs><g/><clipPath id="62e8b82117"><path d="M 13.292969 17.214844 L 355 17.214844 L 355 357.714844 L 13.292969 357.714844 Z M 13.292969 17.214844 " clip-rule="nonzero"/></clipPath></defs><g clip-path="url(#62e8b82117)"><path fill="#0cc0df" d="M 351.429688 156.296875 C 350.007812 148.433594 342.117188 143.050781 334.222656 144.472656 C 326.332031 145.925781 320.980469 153.816406 322.402344 161.675781 C 323.824219 169.929688 324.910156 178.546875 324.910156 187.136719 C 324.910156 264.929688 261.8125 328.03125 184.015625 328.03125 C 106.21875 328.03125 43.117188 265.292969 43.117188 187.5 C 43.117188 109.703125 106.21875 46.601562 184.015625 46.601562 C 203.035156 46.601562 221.660156 50.199219 238.863281 57.726562 C 246.390625 60.964844 254.976562 57.367188 258.242188 49.835938 C 261.449219 42.308594 257.851562 33.722656 250.351562 30.484375 C 229.1875 21.871094 206.964844 17.214844 184.015625 17.214844 C 90.074219 17.214844 13.730469 93.558594 13.730469 187.5 C 13.730469 281.4375 90.074219 357.785156 184.015625 357.785156 C 277.957031 357.785156 354.300781 281.4375 354.300781 187.5 C 354.300781 176.734375 353.210938 166.363281 351.429688 156.296875 " fill-opacity="1" fill-rule="nonzero"/></g><path fill="#0cc0df" d="M 144.226562 144.835938 C 126.660156 119.378906 84.722656 143.746094 102.621094 169.207031 C 124.148438 200.046875 143.863281 232.308594 165.359375 263.148438 C 175.761719 277.839844 196.925781 279.261719 206.964844 263.148438 C 246.390625 199.320312 287.269531 137.308594 339.605469 83.1875 C 361.101562 60.964844 327.058594 26.527344 305.5625 49.109375 C 259.300781 97.15625 220.933594 150.945312 185.4375 206.847656 C 171.832031 186.078125 158.558594 165.273438 144.226562 144.835938 " fill-opacity="1" fill-rule="nonzero"/><g fill="#35a4dd" fill-opacity="1"><g transform="translate(168.890619, 156.747515)"><g><path d="M 13 -4.5 L 14.234375 -0.984375 C 13.722656 -0.566406 13.078125 -0.238281 12.296875 0 C 11.523438 0.238281 10.648438 0.359375 9.671875 0.359375 C 7.628906 0.359375 6.078125 -0.191406 5.015625 -1.296875 C 3.960938 -2.410156 3.4375 -4.03125 3.4375 -6.15625 L 3.4375 -15.109375 L 0.5625 -15.109375 L 0.5625 -18.875 L 3.4375 -18.875 L 3.4375 -22.546875 L 8.171875 -23.3125 L 8.171875 -18.875 L 13.515625 -18.875 L 13.515625 -15.109375 L 8.171875 -15.109375 L 8.171875 -6.5 C 8.171875 -5.5625 8.363281 -4.878906 8.75 -4.453125 C 9.132812 -4.023438 9.695312 -3.8125 10.4375 -3.8125 C 11.28125 -3.8125 12.015625 -4.039062 12.640625 -4.5 Z M 13 -4.5 "/></g></g></g><g fill="#35a4dd" fill-opacity="1"><g transform="translate(183.533345, 156.747515)"><g><path d="M 13.171875 0.359375 C 10.773438 0.359375 8.988281 -0.539062 7.8125 -2.34375 L 7.453125 -2.265625 L 7.453125 0 L 2.71875 0 L 2.71875 -26.421875 L 7.453125 -26.421875 L 7.453125 -16.625 L 7.8125 -16.5625 C 8.457031 -17.457031 9.222656 -18.117188 10.109375 -18.546875 C 10.992188 -18.984375 12.050781 -19.203125 13.28125 -19.203125 C 14.800781 -19.203125 16.128906 -18.84375 17.265625 -18.125 C 18.410156 -17.414062 19.300781 -16.328125 19.9375 -14.859375 C 20.582031 -13.390625 20.90625 -11.578125 20.90625 -9.421875 C 20.90625 -7.273438 20.570312 -5.46875 19.90625 -4 C 19.25 -2.539062 18.335938 -1.445312 17.171875 -0.71875 C 16.015625 0 14.679688 0.359375 13.171875 0.359375 Z M 11.734375 -3.65625 C 13.128906 -3.65625 14.191406 -4.117188 14.921875 -5.046875 C 15.648438 -5.972656 16.015625 -7.429688 16.015625 -9.421875 C 16.015625 -11.410156 15.648438 -12.867188 14.921875 -13.796875 C 14.191406 -14.722656 13.128906 -15.1875 11.734375 -15.1875 C 10.398438 -15.1875 9.34375 -14.707031 8.5625 -13.75 C 7.789062 -12.800781 7.40625 -11.359375 7.40625 -9.421875 C 7.40625 -7.484375 7.789062 -6.035156 8.5625 -5.078125 C 9.34375 -4.128906 10.398438 -3.65625 11.734375 -3.65625 Z M 11.734375 -3.65625 "/></g></g></g></svg>